<svg xmlns="http://www.w3.org/2000/svg" data-name="Layer 1" viewBox="0 0 128 160" x="0px" y="0px"><title>186 Web Icon Set 130 expanded</title><path d="M64.0918,127.91211l.0163.00244a2.00124,2.00124,0,0,0,.55389.08325l.01477.0022.00043-.00006L64.67773,128a1.99933,1.99933,0,0,0,.5517-.08844c.048-.01392.09344-.03009.14038-.04761.05133-.019.10419-.02887.1546-.05243l61.32324-28.7041A2.00007,2.00007,0,0,0,128,97.2959V87.458c0-.03021-.00757-.05829-.00891-.0882a1.98179,1.98179,0,0,0-.02582-.256c-.0083-.04761-.01947-.09357-.03107-.13989a1.98926,1.98926,0,0,0-.06586-.21216c-.01746-.04675-.035-.09283-.05573-.13788a1.98269,1.98269,0,0,0-.10687-.19678c-.02344-.0387-.04456-.07843-.0705-.11536a1.98843,1.98843,0,0,0-.17255-.20911c-.01984-.02142-.0365-.04553-.05725-.066a1.98941,1.98941,0,0,0-.27808-.22937c-.02966-.02032-.06293-.03473-.09369-.05347a1.98536,1.98536,0,0,0-.19482-.11121,150.44724,150.44724,0,0,0-17.18866-6.52191,6.00618,6.00618,0,0,1-.39288,4.07825c3.9397,1.24017,7.63544,2.62836,10.46826,3.76593a33.74552,33.74552,0,0,0-13.11035,9.76367,31.04106,31.04106,0,0,1-16.4834,6.04395c-9.11957.36725-21.57483,7.1344-25.36615,9.31409a11.49481,11.49481,0,0,0-9.8282-.9635c-2.706.92969-5.46385-1.22754-6.8662-2.59473a14.69705,14.69705,0,0,0-5.54-3.41113,25.79078,25.79078,0,0,0-11.4668-1.31348c-3.92285.0498-12.37109-.77344-14.23535-3.62891-1.54431-2.36572-4.26929-3.60089-6.983-4.23962a83.84357,83.84357,0,0,1,9.16168-3.41272c.29138-.02917.56293-.06732.847-.09979a6.0131,6.0131,0,0,1-.75592-3.93787c-.22083.024-.42975.0528-.65558.07477a1.89461,1.89461,0,0,0-.32129.05762c-.26074.06934-6.50293,1.75879-17.00684,6.94043l-.00159.001a1.9961,1.9961,0,0,0-.32629.20428c-.04047.03082-.074.0675-.11163.101a2.00416,2.00416,0,0,0-.1651.15674c-.03723.04175-.06775.08765-.10114.13208a1.98192,1.98192,0,0,0-.12238.17322c-.02783.04657-.0495.09564-.07343.14423a1.96265,1.96265,0,0,0-.08832.19635c-.01923.05261-.03223.10657-.047.16064a1.957,1.957,0,0,0-.04755.20123c-.01038.06281-.01367.12616-.01807.18988C.00977,97.26306,0,97.306,0,97.35156V106.832a1.99946,1.99946,0,0,0,1.415,1.91211ZM90.292,106.76855a34.7973,34.7973,0,0,0,18.98535-7.0459,1.99446,1.99446,0,0,0,.25879-.25488c5.7868-6.83563,11.51331-8.99792,14.46387-9.68549v6.24115L66.67676,122.85553v-7.24988C70.11609,113.63245,82.08392,107.09918,90.292,106.76855Zm-76.8125-4.40723c3.59473,5.50391,16.31152,5.44922,17.76367,5.44043a2.1746,2.1746,0,0,0,.23828-.01855,21.75333,21.75333,0,0,1,9.75586,1.11914,10.73669,10.73669,0,0,1,4.043,2.49121c3.55664,3.46582,7.44336,4.71484,10.95313,3.51367a7.5761,7.5761,0,0,1,6.44336.5791v7.81055L4,105.35254V99.2959C7.041,99.335,11.88574,99.91895,13.47949,102.36133Z"/><path d="M92.72656,79.97754c.937,0,1.92548.061,2.94318.16162a5.91724,5.91724,0,0,1-.95-.85889,6.01325,6.01325,0,0,1-1.43457-3.29077c-.18591-.0036-.37537-.012-.55859-.012-12.07129,0-22.53125-5.67187-22.63574-5.72949a2.00409,2.00409,0,0,0-.91223-.24542,5.76562,5.76562,0,0,1,.59625,4.562A56.156,56.156,0,0,0,92.72656,79.97754Z"/><circle cx="63.97919" cy="32" r="2"/><path d="M104.02051,2a2.0001,2.0001,0,0,0-2-2h-16a2,2,0,0,0,0,4h6V6h-2a2.0001,2.0001,0,0,0-2,2v2H80.36328A23.28625,23.28625,0,0,0,63.85645,3.0625h-.02539A22.397,22.397,0,0,0,47.57227,10H39.97949V8a2.0001,2.0001,0,0,0-2-2h-2V4h6a2,2,0,0,0,0-4h-16a2,2,0,0,0,0,4h6V6h-2a2.0001,2.0001,0,0,0-2,2V20a2.0001,2.0001,0,0,0,2,2h8c.01068,0,.02057-.003.03125-.00317.01068.00018.02057.00317.03125.00317h10.5l3.28693,3.31018C48.87164,27.13446,46.94824,30.70447,46.94824,35a2,2,0,0,0,4,0c0-4.31689,2.4549-6.6994,5.03125-6.97272V36a4.004,4.004,0,0,0,4,4h8a4.004,4.004,0,0,0,4-4V28.11353c2.37238.5249,4.5,2.86768,4.5,6.88647a2,2,0,0,0,4,0,11.38814,11.38814,0,0,0-4.05695-9.11292l4.181-3.9281h9.01276a2.00907,2.00907,0,0,0,.40424.041h8a2.0001,2.0001,0,0,0,2-2V8a2.0001,2.0001,0,0,0-2-2h-2V4h6A2.0001,2.0001,0,0,0,104.02051,2Zm-68.041,16h-4V10h4Zm24,18V28h8.001l.002,8Zm19.832-18.041a2.00118,2.00118,0,0,0-1.36914.542l-4.95605,4.65625A4.019,4.019,0,0,1,71.0293,24H57.81738a3.94591,3.94591,0,0,1-2.63965-.99023l-4.38281-4.418A1.99974,1.99974,0,0,0,49.375,18H39.97949V14h8.5a2.01748,2.01748,0,0,0,1.57715-.76953,18.092,18.092,0,0,1,11.92285-6.071V12a2,2,0,0,0,4,0V7.19446a19.07686,19.07686,0,0,1,11.94727,6.06531A1.99792,1.99792,0,0,0,79.47949,14h8.541v3.959Zm16.209.041h-4V10h4Z"/><path d="M41.08008,68.4502a1.99478,1.99478,0,1,0-1.14062-.36035A1.9504,1.9504,0,0,0,41.08008,68.4502Z"/><path d="M37.06934,74.18945a1.99837,1.99837,0,1,0-1.14941-.35937A2.03284,2.03284,0,0,0,37.06934,74.18945Z"/><path d="M45.09961,62.71973a1.99965,1.99965,0,1,0-1.14941-.36035A2.01365,2.01365,0,0,0,45.09961,62.71973Z"/><path d="M33.0498,79.91992a2.00575,2.00575,0,1,0-1.13965-.36035A1.9718,1.9718,0,0,0,33.0498,79.91992Z"/><path d="M49.10938,56.99023a1.99966,1.99966,0,1,0-1.13965-.36035A2.0193,2.0193,0,0,0,49.10938,56.99023Z"/><path d="M58.29,41.87988A2.00028,2.00028,0,0,0,56,45.16016a2.02561,2.02561,0,0,0,1.13965.35938A2.00022,2.00022,0,0,0,58.29,41.87988Z"/><path d="M23.37988,88.24023a1.99843,1.99843,0,0,0,.49023,2.7793,1.96625,1.96625,0,0,0,1.14941.37012,2.00159,2.00159,0,1,0-1.63965-3.14941Z"/><path d="M53.12988,51.25a1.99479,1.99479,0,1,0-1.15039-.36035A1.95824,1.95824,0,0,0,53.12988,51.25Z"/><path d="M30.17969,82.01953a1.99628,1.99628,0,1,0-2.29,3.27051,2.00048,2.00048,0,0,0,2.78027-.49023A1.9837,1.9837,0,0,0,30.17969,82.01953Z"/><path d="M91.37012,66.29a2.00661,2.00661,0,1,0-1.32031.49023A1.99583,1.99583,0,0,0,91.37012,66.29Z"/><path d="M103.84961,82.62012a2.0048,2.0048,0,1,0-1.50977-.69043A1.97007,1.97007,0,0,0,103.84961,82.62012Z"/><path d="M96.16016,68.75a2.00251,2.00251,0,1,0-1.51074,3.30957A2.00016,2.00016,0,0,0,96.16016,68.75Z"/><path d="M86.76953,61.00977A2.00544,2.00544,0,1,0,85.46,61.5,2.00639,2.00639,0,0,0,86.76953,61.00977Z"/><path d="M77.58008,50.4502a2.009,2.009,0,1,0-1.32031.48926A1.99522,1.99522,0,0,0,77.58008,50.4502Z"/><path d="M82.16992,55.72949a2.00767,2.00767,0,1,0-1.31055.49023A1.99636,1.99636,0,0,0,82.16992,55.72949Z"/><path d="M71.66992,45.66992a2.00474,2.00474,0,1,0-1.50977-.69043A2.00621,2.00621,0,0,0,71.66992,45.66992Z"/><path d="M97.93945,73.83008a1.99891,1.99891,0,1,0,2.82031.2002A1.98729,1.98729,0,0,0,97.93945,73.83008Z"/><path d="M64,45a2,2,0,1,0,2,2A1.99885,1.99885,0,0,0,64,45Z"/><path d="M64,52a2,2,0,1,0,2,2A1.99264,1.99264,0,0,0,64,52Z"/><path d="M64,66a2,2,0,1,0,2,2A1.99264,1.99264,0,0,0,64,66Z"/><path d="M64,73a2,2,0,1,0,2,2A1.99264,1.99264,0,0,0,64,73Z"/><path d="M64,80a2,2,0,1,0,2,2A1.99264,1.99264,0,0,0,64,80Z"/><path d="M64,59a2,2,0,1,0,2,2A1.99264,1.99264,0,0,0,64,59Z"/><path d="M43.374,82.458a65.918,65.918,0,0,1,10.32324-3.14746c1.62341-.36029,3.15765-.75708,4.597-1.1665a5.9256,5.9256,0,0,1,.83557-1.644,6.01784,6.01784,0,0,1-1.03424-2.46649c-1.62177.48328-3.38263.95483-5.26556,1.37274A69.82135,69.82135,0,0,0,41.873,78.751a18.773,18.773,0,0,0-3.46637,1.86566A5.89246,5.89246,0,0,1,35.04,83.58008a6.01754,6.01754,0,0,1-1.08984,3.51953,5.94559,5.94559,0,0,1-2.93066,2.21973c.00305.18121-.01959.36267-.03357.54413a24.80267,24.80267,0,0,0,7.97888-4.631A14.79265,14.79265,0,0,1,43.374,82.458Z"/><text x="0" y="143" fill="#000000" font-size="5px" font-weight="bold" font-family="'Helvetica Neue', Helvetica, Arial-Unicode, Arial, Sans-serif">Created by Creative Mahira</text><text x="0" y="148" fill="#000000" font-size="5px" font-weight="bold" font-family="'Helvetica Neue', Helvetica, Arial-Unicode, Arial, Sans-serif">from the Noun Project</text></svg>